<svg width="250" height="250" viewBox="0 0 250 250" fill="none" xmlns="http://www.w3.org/2000/svg">
<path d="M26.1207 154.285L16.1459 157.356L22.8966 159.87L23.0202 160.272L18.9192 166.149L28.8338 163.096L29.186 164.24L17.144 167.948L16.8721 167.065L21.4531 160.534L13.9922 157.712L13.7326 156.869L25.7746 153.161L26.1207 154.285Z" fill="white"/>
<path d="M14.2261 140.235L27.0537 143.965L27.2454 145.189L23.022 143.874L15.594 148.969L15.3893 147.662L21.3803 143.706C21.6279 143.568 21.8001 143.491 21.8969 143.476L21.8872 143.414C21.7212 143.44 21.5338 143.42 21.325 143.353L14.4146 141.438L14.2261 140.235Z" fill="white"/>
<path d="M21.9919 127.783L9.39635 127.447L9.52499 122.619C9.56452 121.136 9.96633 119.984 10.7304 119.164C11.4806 118.344 12.5064 117.951 13.8079 117.985C15.1654 118.022 16.2175 118.484 16.9641 119.372C17.6971 120.246 18.0438 121.424 18.0043 122.908L17.9092 126.477L22.0238 126.586L21.9919 127.783ZM13.818 119.183C12.8244 119.157 12.0531 119.458 11.5041 120.088C10.9551 120.717 10.6661 121.578 10.637 122.67L10.5408 126.28L16.7966 126.447L16.8928 122.836C16.9223 121.731 16.6795 120.856 16.1645 120.212C15.6358 119.554 14.8537 119.211 13.818 119.183Z" fill="white"/>
<path d="M14.4518 108.628L15.408 108.766L15.3451 109.202C15.2453 109.895 15.4119 110.506 15.8448 111.035C16.2778 111.565 16.8456 111.894 17.5484 112.023L22.7863 112.778L22.6186 113.942L13.8887 112.684L14.0085 111.853L15.6477 111.962L15.6567 111.899C15.2531 111.657 14.9169 111.291 14.6483 110.799C14.3816 110.294 14.2941 109.723 14.386 109.085L14.4518 108.628Z" fill="white"/>
<path d="M18.3463 95.2795C19.4004 94.6699 20.5916 94.5367 21.92 94.8801C23.2483 95.2234 24.2123 95.9136 24.8118 96.9506C25.4149 97.9741 25.5623 99.0822 25.254 100.275C24.9422 101.481 24.2728 102.393 23.2459 103.009C22.2224 103.613 21.0465 103.742 19.7181 103.399C18.3762 103.052 17.397 102.365 16.7803 101.338C16.1536 100.294 15.9962 99.1692 16.308 97.9628C16.6163 96.77 17.2957 95.8756 18.3463 95.2795ZM24.3188 100.033C24.5395 99.1793 24.4101 98.3651 23.9307 97.5905C23.4513 96.8158 22.6829 96.2919 21.6257 96.0186C20.5684 95.7454 19.6289 95.8279 18.8071 96.2662C17.9852 96.7045 17.464 97.3506 17.2433 98.2046C17.019 99.072 17.1602 99.8966 17.6667 100.678C18.1597 101.456 18.9416 101.984 20.0124 102.261C21.0697 102.534 21.9957 102.448 22.7904 102.002C23.5851 101.557 24.0945 100.901 24.3188 100.033Z" fill="white"/>
<path d="M30.2941 93.5263L29.3654 93.1922L29.4294 93.0144C29.7042 92.2503 29.4267 91.719 28.5967 91.4204L19.3884 88.108L19.7865 87.0014L29.0343 90.3281C30.4571 90.8399 30.9244 91.7742 30.4363 93.1311L30.2941 93.5263ZM17.4943 86.1769C17.587 86.3739 17.5931 86.5844 17.5126 86.8083C17.432 87.0323 17.2909 87.1972 17.0891 87.3032C16.8741 87.4044 16.6613 87.4171 16.4505 87.3413C16.2265 87.2607 16.064 87.113 15.9627 86.898C15.8615 86.6831 15.8512 86.4636 15.9318 86.2397C16.0123 86.0157 16.1577 85.8597 16.3679 85.7717C16.5829 85.6705 16.8023 85.6601 17.0263 85.7407C17.237 85.8165 17.393 85.9619 17.4943 86.1769Z" fill="white"/>
<path d="M30.9254 78.7978L31.9007 78.7379C31.935 78.8308 31.9709 78.9706 32.0083 79.1573C32.0515 79.3313 32.0481 79.7072 31.998 80.2852C31.941 80.8446 31.7808 81.4104 31.5175 81.9828C30.9617 83.1911 30.1355 83.9822 29.0389 84.3561C27.9422 84.73 26.7644 84.6273 25.5052 84.0481C24.246 83.4689 23.3865 82.6574 22.9266 81.6137C22.454 80.5641 22.4722 79.4861 22.9812 78.3795C23.4902 77.273 24.254 76.5842 25.2725 76.313C26.2969 76.0291 27.3878 76.1534 28.5452 76.6858L28.8123 76.8087L25.9864 82.9519L26.0054 82.9607C27.0229 83.4287 27.9437 83.5209 28.7676 83.2373C29.5974 82.941 30.2112 82.3604 30.609 81.4955C30.8197 81.0376 30.9492 80.5886 30.9975 80.1486C31.0517 79.6958 31.0532 79.3575 31.0021 79.1336L30.9254 78.7978ZM23.8969 78.8008C23.581 79.4876 23.5276 80.1565 23.7367 80.8075C23.9389 81.4398 24.405 82.001 25.1351 82.4909L27.4257 77.5115C26.6274 77.2368 25.9219 77.2127 25.3091 77.4394C24.6895 77.6475 24.2187 78.1013 23.8969 78.8008Z" fill="white"/>
<path d="M36.9858 71.3747C36.3301 72.467 35.4332 73.1451 34.2951 73.409C33.157 73.6728 31.9998 73.4517 30.8234 72.7456C29.6351 72.0323 28.8837 71.1077 28.5694 69.972C28.2431 68.8291 28.4078 67.7115 29.0635 66.6192C29.3517 66.139 29.6651 65.7393 30.0037 65.42C30.3423 65.1008 30.6149 64.9052 30.8214 64.8332L31.1131 64.7144L31.6928 65.5032C31.0061 65.7768 30.4285 66.3037 29.9602 67.0839C29.4918 67.8641 29.3812 68.6877 29.6284 69.5545C29.8755 70.4213 30.4792 71.1429 31.4395 71.7193C32.3997 72.2957 33.3085 72.482 34.1657 72.2781C35.0229 72.0742 35.6856 71.5821 36.154 70.8019C36.3629 70.4538 36.5131 70.0948 36.6044 69.7251C36.7029 69.3434 36.7474 69.0517 36.7378 68.85L36.7343 68.5294L37.6814 68.7061C37.7006 68.7829 37.7138 68.897 37.721 69.0483C37.7353 69.1875 37.6897 69.4948 37.5839 69.9702C37.4734 70.4264 37.274 70.8945 36.9858 71.3747Z" fill="white"/>
<path d="M33.1105 60.4803L34.1261 59.1157L31.9699 57.5108L32.6595 56.5843L34.8158 58.1892L36.4081 56.0498L37.1831 56.6266L35.5907 58.766L40.0043 62.0511C40.8354 62.6697 41.5309 62.6027 42.091 61.8503C42.2164 61.6818 42.3137 61.4924 42.3829 61.2822C42.4605 61.0607 42.5103 60.8883 42.5322 60.765L42.5483 60.5676L43.4647 60.7784C43.4892 61.3551 43.2799 61.9411 42.8369 62.5363C42.3521 63.1877 41.8046 63.5481 41.1944 63.6175C40.5926 63.6757 39.9717 63.4666 39.3315 62.9902L34.901 59.6925L33.8854 61.057L33.1105 60.4803Z" fill="white"/>
<path d="M45.4793 57.3126L45.2211 56.3747C46.1512 56.1565 47.014 55.6049 47.8095 54.7199C48.8202 53.5953 48.9559 52.7008 48.2167 52.0364C47.9147 51.765 47.5442 51.6955 47.1051 51.828C46.6557 51.9511 46.187 52.1793 45.6992 52.5126C45.2208 52.8355 44.7272 53.1543 44.2186 53.4689C43.7193 53.7731 43.2032 53.9493 42.6705 53.9976C42.1273 54.0364 41.6371 53.8593 41.1997 53.4663C40.6479 52.9703 40.3878 52.3695 40.4196 51.6639C40.4514 50.9584 40.8229 50.2099 41.5341 49.4186C41.9553 48.95 42.3952 48.5548 42.8539 48.233C43.3022 47.9017 43.6527 47.6897 43.9055 47.5969L44.2691 47.4437L44.71 48.4611C43.8787 48.674 43.0887 49.1969 42.34 50.0299C41.348 51.1336 41.2008 51.999 41.8985 52.626C42.1796 52.8787 42.5397 52.9388 42.9787 52.8064C43.4074 52.6645 43.8557 52.4275 44.3238 52.0952C44.8012 51.7525 45.2895 51.4291 45.7888 51.1249C46.2975 50.8103 46.8286 50.6382 47.3822 50.6087C47.9357 50.5792 48.4468 50.775 48.9154 51.1961C49.4672 51.6921 49.7429 52.307 49.7424 53.0406C49.7314 53.7649 49.3422 54.5539 48.5748 55.4077C48.0976 55.9388 47.5999 56.3668 47.0819 56.6918C46.5733 57.0064 46.1816 57.1909 45.9069 57.2452L45.4793 57.3126Z" fill="white"/>
<path d="M77.7341 31.8637L72.5836 22.7861L71.585 29.92L71.2197 30.1273L64.5964 27.3903L69.7158 36.4131L68.6747 37.0038L62.4568 26.0449L63.2605 25.5889L70.6251 28.6538L71.7719 20.7597L72.5391 20.3245L78.7569 31.2834L77.7341 31.8637Z" fill="white"/>
<path d="M88.4977 17.3597L87.6262 30.6902L86.4724 31.1418L86.8446 26.734L80.2648 20.5819L81.4968 20.0997L86.654 25.0947C86.8422 25.3067 86.9542 25.4583 86.9899 25.5495L87.0485 25.5266C86.9873 25.3701 86.9666 25.1828 86.9864 24.9646L87.3635 17.8036L88.4977 17.3597Z" fill="white"/>
<path d="M102.33 22.1833L99.9717 9.80595L104.716 8.90197C106.174 8.62423 107.385 8.77119 108.349 9.34287C109.311 9.90079 109.913 10.8192 110.157 12.0982C110.411 13.4322 110.184 14.5587 109.475 15.4775C108.778 16.38 107.7 16.9701 106.242 17.2478L102.735 17.916L103.506 21.9593L102.33 22.1833ZM108.989 12.3635C108.803 11.3871 108.344 10.6978 107.611 10.2958C106.879 9.8937 105.977 9.79485 104.904 9.99923L101.356 10.6753L102.527 16.8227L106.075 16.1467C107.162 15.9397 107.965 15.5159 108.484 14.8754C109.014 14.2185 109.183 13.3812 108.989 12.3635Z" fill="white"/>
<path d="M119.89 10.6436L119.959 11.6071L119.519 11.6386C118.821 11.6886 118.26 11.9815 117.835 12.5172C117.41 13.0529 117.209 13.6779 117.232 14.3921L117.61 19.6705L116.437 19.7546L115.807 10.9571L116.645 10.8971L116.888 12.5219L116.951 12.5174C117.101 12.0715 117.388 11.665 117.811 11.2978C118.247 10.9297 118.787 10.7226 119.429 10.6766L119.89 10.6436Z" fill="white"/>
<path d="M133.753 11.597C134.573 12.4965 134.958 13.6317 134.907 15.0027C134.855 16.3738 134.387 17.463 133.502 18.2703C132.631 19.0782 131.58 19.459 130.349 19.4128C129.104 19.366 128.07 18.9069 127.248 18.0355C126.44 17.1645 126.062 16.0436 126.114 14.6725C126.166 13.2875 126.627 12.184 127.499 11.3622C128.385 10.5268 129.45 10.1325 130.696 10.1793C131.927 10.2255 132.946 10.6981 133.753 11.597ZM130.385 18.4475C131.266 18.4806 132.034 18.1802 132.689 17.5463C133.343 16.9124 133.69 16.0498 133.731 14.9586C133.772 13.8674 133.491 12.9672 132.887 12.258C132.283 11.5489 131.541 11.1777 130.659 11.1446C129.764 11.111 128.989 11.4251 128.333 12.087C127.679 12.7349 127.33 13.6114 127.289 14.7167C127.248 15.8079 127.53 16.6941 128.135 17.3753C128.74 18.0564 129.49 18.4139 130.385 18.4475Z" fill="white"/>
<path d="M137.9 22.8765L138.027 21.8976L138.214 21.9219C139.02 22.0259 139.479 21.6406 139.592 20.7658L140.846 11.0605L142.012 11.2112L140.753 20.9582C140.559 22.4577 139.747 23.1151 138.317 22.9303L137.9 22.8765ZM142.324 8.79528C142.152 8.92827 141.948 8.97952 141.712 8.94903C141.475 8.91853 141.284 8.81615 141.137 8.64189C140.992 8.45375 140.934 8.2486 140.963 8.02645C140.993 7.79041 141.102 7.59985 141.291 7.45476C141.479 7.30967 141.691 7.25238 141.927 7.28288C142.163 7.31337 142.346 7.42179 142.478 7.60814C142.623 7.79629 142.68 8.00838 142.65 8.24441C142.621 8.46657 142.512 8.65019 142.324 8.79528Z" fill="white"/>
<path d="M152.629 20.3637L152.896 21.3037C152.812 21.3571 152.683 21.4219 152.509 21.4983C152.348 21.5777 151.98 21.6545 151.405 21.7288C150.846 21.7924 150.259 21.7567 149.644 21.6215C148.345 21.3362 147.396 20.6977 146.796 19.7061C146.197 18.7145 146.046 17.5418 146.344 16.1881C146.641 14.8343 147.25 13.8215 148.172 13.1496C149.097 12.4639 150.154 12.2518 151.343 12.5131C152.533 12.7744 153.369 13.3736 153.851 14.3109C154.347 15.2511 154.458 16.3434 154.185 17.5878L154.122 17.8749L147.517 16.4243L147.513 16.4448C147.273 17.5388 147.379 18.458 147.832 19.2024C148.298 19.9499 148.996 20.4258 149.926 20.63C150.418 20.7381 150.885 20.7689 151.325 20.7222C151.779 20.6786 152.11 20.6079 152.318 20.5102L152.629 20.3637ZM151.127 13.4976C150.389 13.3354 149.724 13.4259 149.133 13.769C148.558 14.1015 148.109 14.6766 147.786 15.4943L153.139 16.6701C153.238 15.8317 153.111 15.1373 152.758 14.5869C152.423 14.0259 151.879 13.6628 151.127 13.4976Z" fill="white"/>
<path d="M160.714 24.5248C159.506 24.1204 158.65 23.391 158.147 22.3366C157.644 21.2823 157.61 20.1046 158.045 18.8036C158.485 17.4893 159.226 16.5561 160.267 16.0041C161.313 15.4388 162.44 15.3583 163.648 15.7628C164.179 15.9406 164.637 16.1603 165.021 16.422C165.406 16.6837 165.656 16.9076 165.771 17.0937L165.95 17.3529L165.305 18.0892C164.889 17.4777 164.25 17.0275 163.387 16.7387C162.524 16.4498 161.696 16.5195 160.903 16.9479C160.11 17.3763 159.536 18.1216 159.181 19.1836C158.825 20.2457 158.839 21.1732 159.223 21.9662C159.608 22.7591 160.231 23.3001 161.094 23.589C161.479 23.7178 161.862 23.787 162.243 23.7963C162.637 23.8101 162.931 23.7906 163.126 23.7377L163.438 23.6651L163.47 24.628C163.399 24.6633 163.291 24.7008 163.144 24.7405C163.012 24.7846 162.702 24.8063 162.215 24.8057C161.745 24.7962 161.245 24.7026 160.714 24.5248Z" fill="white"/>
<path d="M170.32 18.2655L171.873 18.9589L172.969 16.5045L174.023 16.9753L172.928 19.4298L175.363 20.5171L174.969 21.3992L172.534 20.3119L170.291 25.3359C169.868 26.2819 170.086 26.9461 170.942 27.3285C171.134 27.4141 171.34 27.4678 171.56 27.4895C171.793 27.5169 171.972 27.5278 172.097 27.5224L172.294 27.495L172.288 28.4353C171.73 28.585 171.113 28.5086 170.435 28.2061C169.694 27.8751 169.223 27.4194 169.022 26.8391C168.834 26.2645 168.902 25.6129 169.228 24.8842L171.479 19.841L169.926 19.1476L170.32 18.2655Z" fill="white"/>
<path d="M176.334 29.7231L177.193 29.2681C177.608 30.129 178.333 30.8521 179.369 31.4372C180.686 32.1807 181.588 32.1197 182.077 31.2542C182.277 30.9006 182.264 30.5239 182.04 30.1239C181.823 29.7117 181.498 29.3035 181.067 28.8994C180.649 28.5021 180.231 28.0892 179.813 27.6607C179.408 27.239 179.125 26.7733 178.962 26.2636C178.807 25.7417 178.874 25.2248 179.163 24.7128C179.528 24.0667 180.058 23.6828 180.754 23.5612C181.449 23.4396 182.261 23.6404 183.187 24.1636C183.736 24.4734 184.217 24.8174 184.63 25.1955C185.051 25.5616 185.333 25.8579 185.479 26.0847L185.707 26.4065L184.809 27.057C184.421 26.2915 183.74 25.6333 182.765 25.0826C181.472 24.3529 180.596 24.3964 180.134 25.2132C179.949 25.5423 179.968 25.9069 180.192 26.3069C180.423 26.6947 180.752 27.0811 181.177 27.4662C181.615 27.8582 182.037 28.265 182.442 28.6866C182.859 29.1152 183.142 29.5965 183.29 30.1306C183.439 30.6647 183.358 31.206 183.048 31.7546C182.684 32.4007 182.143 32.8028 181.427 32.961C180.717 33.107 179.863 32.8977 178.863 32.3332C178.241 31.9821 177.716 31.5889 177.286 31.1535C176.869 30.7249 176.604 30.3824 176.492 30.126L176.334 29.7231Z" fill="white"/>
<path fill-rule="evenodd" clip-rule="evenodd" d="M26.9637 177.869C32.061 187.647 38.6747 196.845 46.8075 205.117C90.9487 250.012 163.127 250.623 208.022 206.482C252.917 162.341 253.529 90.163 209.388 45.2678C205.435 41.2477 201.258 37.5827 196.895 34.2731L196.425 34.67C200.804 37.9835 204.995 41.6565 208.96 45.6885C252.869 90.3474 252.26 162.146 207.601 206.055C162.943 249.963 91.1442 249.355 47.2354 204.696C39.1121 196.434 32.5125 187.243 27.4336 177.472L26.9637 177.869Z" fill="white"/>
<path d="M54.1758 36.821L55.3968 38.1398C55.8474 38.6264 56.5099 38.8581 57.1655 38.7582L59.0319 38.474L57.6278 39.4598C56.916 39.9596 56.6088 40.8621 56.8679 41.6924L57.3789 43.3301L56.2105 41.9331C55.7231 41.3503 54.9475 41.094 54.2088 41.2717L52.5228 41.6771L53.8997 40.5626C54.4981 40.0781 54.7653 39.2931 54.5867 38.5441L54.1758 36.821Z" fill="white"/>
</svg>
