<svg width="26" height="25" viewBox="0 0 26 25" fill="none" xmlns="http://www.w3.org/2000/svg">
<path d="M5.28081 21.2508L3.52612 1.5625H22.8136L21.0566 21.2477L13.1582 23.4375L5.28081 21.2508Z" fill="#1572B6"/>
<path d="M13.1699 21.764L19.5527 19.9945L21.0543 3.17261H13.1699V21.764Z" fill="#33A9DC"/>
<path d="M13.1699 10.3055H16.3652L16.5855 7.83281H13.1699V5.41797H19.2246L19.1668 6.06562L18.5738 12.7203H13.1699V10.3055V10.3055Z" fill="white"/>
<path d="M13.1848 16.5766L13.1738 16.5797L10.4848 15.8531L10.3129 13.9274H7.88867L8.22695 17.7188L13.173 19.0922L13.1848 19.0891V16.5766V16.5766Z" fill="#EBEBEB"/>
<path d="M16.1599 12.6179L15.8692 15.8515L13.1763 16.5781V19.0906L18.1263 17.7187L18.163 17.3109L18.5825 12.6179H16.1599V12.6179Z" fill="white"/>
<path d="M13.1786 5.41797V7.83281H7.3458L7.29736 7.28984L7.18721 6.06562L7.12939 5.41797H13.1786V5.41797ZM13.17 10.3055V12.7203H10.5146L10.4661 12.1773L10.3567 10.9531L10.2989 10.3055H13.17V10.3055Z" fill="#EBEBEB"/>
</svg>
