<svg width="17" height="25" viewBox="0 0 17 25" fill="none" xmlns="http://www.w3.org/2000/svg">
<g clip-path="url(#clip0_166_9)">
<path d="M4.16838 25C6.46838 25 8.33504 23.1333 8.33504 20.8333V16.6666H4.16838C1.86838 16.6666 0.00170898 18.5333 0.00170898 20.8333C0.00170898 23.1333 1.86838 25 4.16838 25Z" fill="#0ACF83"/>
<path d="M0.00170898 12.5C0.00170898 10.2 1.86838 8.33337 4.16838 8.33337H8.33504V16.6667H4.16838C1.86838 16.6667 0.00170898 14.8 0.00170898 12.5Z" fill="#A259FF"/>
<path d="M0.00170898 4.16667C0.00170898 1.86667 1.86838 0 4.16838 0H8.33504V8.33333H4.16838C1.86838 8.33333 0.00170898 6.46667 0.00170898 4.16667Z" fill="#F24E1E"/>
<path d="M8.33496 0H12.5016C14.8016 0 16.6683 1.86667 16.6683 4.16667C16.6683 6.46667 14.8016 8.33333 12.5016 8.33333H8.33496V0Z" fill="#FF7262"/>
<path d="M16.6683 12.5C16.6683 14.8 14.8016 16.6667 12.5016 16.6667C10.2016 16.6667 8.33496 14.8 8.33496 12.5C8.33496 10.2 10.2016 8.33337 12.5016 8.33337C14.8016 8.33337 16.6683 10.2 16.6683 12.5Z" fill="#1ABCFE"/>
</g>
<defs>
<clipPath id="clip0_166_9">
<rect width="16.67" height="25" fill="white"/>
</clipPath>
</defs>
</svg>
