<svg width="26" height="25" viewBox="0 0 26 25" fill="none" xmlns="http://www.w3.org/2000/svg">
<path d="M5.28086 21.2508L3.52539 1.5625H22.8145L21.0566 21.2477L13.1582 23.4375L5.28086 21.2508Z" fill="#E44F26"/>
<path d="M13.1699 21.764L19.5527 19.9945L21.0543 3.17261H13.1699V21.764Z" fill="#F1662A"/>
<path d="M13.1699 10.4742H9.97461L9.7543 8.00151H13.1699V5.58667H7.11523L7.17305 6.23511L7.76602 12.889H13.1699V10.4742V10.4742ZM13.1699 16.7453L13.159 16.7484L10.4699 16.0226L10.298 14.0968H7.87383L8.21211 17.8875L13.159 19.2609L13.1699 19.2578V16.7453Z" fill="#EBEBEB"/>
<path d="M13.1614 10.4742V12.889H16.1348L15.8551 16.021L13.1614 16.7476V19.2601L18.1122 17.8875L18.1481 17.4796L18.7153 11.1226L18.7747 10.4742H13.1614V10.4742ZM13.1614 5.58667V8.00151H18.9942L19.0426 7.45933L19.1528 6.23511L19.2106 5.58667H13.1614V5.58667Z" fill="white"/>
</svg>
