<svg width="27" height="25" viewBox="0 0 27 25" fill="none" xmlns="http://www.w3.org/2000/svg">
<rect x="1" y="2" width="21" height="21" fill="#FF9A00"/>
<rect x="2" y="3" width="19" height="19" fill="#330000"/>
<path d="M11.1217 14.979H7.15471L6.34751 17.4863C6.33653 17.5321 6.30994 17.5725 6.27231 17.6007C6.23469 17.629 6.18839 17.6432 6.14141 17.6409H4.13211C4.01761 17.6409 3.97751 17.5779 4.01191 17.4519L7.44661 7.56012C7.48091 7.45713 7.51531 7.33983 7.54961 7.20813C7.59461 6.97893 7.61761 6.74613 7.61831 6.51263C7.61598 6.49629 7.61747 6.47964 7.62269 6.46398C7.6279 6.44833 7.63668 6.4341 7.64835 6.42243C7.66001 6.41076 7.67423 6.40196 7.68988 6.39674C7.70553 6.39151 7.72218 6.39 7.73851 6.39233H10.4691C10.5491 6.39233 10.5949 6.42102 10.6065 6.47832L14.5048 17.4691C14.5392 17.5837 14.5048 17.641 14.4018 17.6409H12.1692C12.1309 17.6452 12.0923 17.6353 12.0607 17.6132C12.0291 17.5911 12.0066 17.5582 11.9975 17.5207L11.1217 14.979V14.979ZM7.77291 12.8152H10.4863L10.4476 12.6875L10.3855 12.4853L10.3412 12.3433L10.2705 12.1197L10.1202 11.649L9.98801 11.2317L9.64471 10.1447C9.55927 9.87451 9.47726 9.60322 9.39871 9.33093L9.33591 9.10993L9.26251 8.84863L9.15051 8.44362L9.12951 8.36732H9.11241C9.02649 8.77954 8.92185 9.18763 8.79881 9.59033L8.54401 10.4099L8.40381 10.8627L8.26231 11.3211C8.23671 11.4039 8.21131 11.4858 8.18581 11.5667L8.10981 11.8065L8.03421 12.0407L7.95901 12.2691L7.88421 12.4918C7.85941 12.5651 7.83461 12.6374 7.80991 12.7088L7.77291 12.8152V12.8152ZM16.823 8.21273C16.6479 8.21976 16.4732 8.18974 16.3104 8.12464C16.1477 8.05954 16.0005 7.96081 15.8785 7.83493C15.7569 7.70357 15.6624 7.54947 15.6005 7.38148C15.5386 7.21348 15.5105 7.03491 15.5178 6.85602C15.5116 6.67894 15.5428 6.50252 15.6094 6.33831C15.6759 6.1741 15.7764 6.02577 15.9042 5.90303C16.1507 5.66639 16.479 5.53396 16.8207 5.53333L16.8573 5.53373C17.2695 5.53373 17.593 5.65673 17.8277 5.90293C17.9462 6.03084 18.0382 6.18087 18.0986 6.34442C18.159 6.50796 18.1866 6.68182 18.1797 6.85602C18.1869 7.03562 18.1579 7.21483 18.0945 7.38301C18.0311 7.55119 17.9345 7.70491 17.8105 7.83503C17.6853 7.95842 17.5367 8.05553 17.3734 8.12062C17.2101 8.18571 17.0355 8.21747 16.8597 8.21403L16.823 8.21273V8.21273ZM15.638 17.4691V9.26032C15.638 9.15732 15.6836 9.10573 15.7754 9.10573H17.8878C17.9793 9.10573 18.0251 9.15722 18.0252 9.26032V17.4691C18.0252 17.5837 17.9794 17.641 17.8878 17.6409H15.7926C15.695 17.6409 15.6436 17.5895 15.6385 17.4867L15.638 17.4691Z" fill="#FF9A00"/>
</svg>
