<svg width="26" height="25" viewBox="0 0 26 25" fill="none" xmlns="http://www.w3.org/2000/svg">
<path d="M2.3125 1.5625H24.1875V23.4375H2.3125V1.5625Z" fill="#F5DE19"/>
<path d="M17.0069 18.6524C17.1933 19.031 17.4829 19.3492 17.8423 19.5703C18.2017 19.7915 18.6162 19.9066 19.0382 19.9024C19.8897 19.9024 20.4343 19.4766 20.4343 18.8867C20.4343 18.1836 19.8749 17.9321 18.9374 17.5219L18.4233 17.3016C16.939 16.6696 15.9546 15.8782 15.9546 14.2047C15.9546 12.6633 17.1265 11.4891 18.9647 11.4891C19.5598 11.4461 20.1544 11.5793 20.6743 11.872C21.1942 12.1648 21.6163 12.6041 21.8882 13.1352L20.2812 14.1625C20.1765 13.8992 19.9942 13.6739 19.7586 13.5165C19.5229 13.3591 19.245 13.2771 18.9616 13.2813C18.838 13.2689 18.7132 13.2824 18.595 13.321C18.4769 13.3595 18.3681 13.4222 18.2756 13.5051C18.1831 13.588 18.1088 13.6893 18.0576 13.8025C18.0063 13.9157 17.9793 14.0383 17.978 14.1625C17.978 14.7789 18.3601 15.0289 19.2421 15.4125L19.7562 15.6328C21.503 16.3821 22.4905 17.1453 22.4905 18.8617C22.4905 20.7125 21.0366 21.7266 19.0843 21.7266C18.3236 21.7751 17.5651 21.6024 16.9004 21.2293C16.2357 20.8563 15.6931 20.2988 15.3382 19.6242L17.0069 18.6524ZM9.74521 18.8305C10.0679 19.4032 10.3616 19.8875 11.0679 19.8875C11.7429 19.8875 12.1694 19.6235 12.1694 18.5961V11.6063H14.2249V18.6235C14.2249 20.7516 12.9749 21.7203 11.1554 21.7203C10.5122 21.7555 9.87346 21.5952 9.32309 21.2606C8.77273 20.9259 8.33651 20.4326 8.07178 19.8453L9.74521 18.8305Z" fill="black"/>
</svg>
