<svg width="26" height="25" viewBox="0 0 26 25" fill="none" xmlns="http://www.w3.org/2000/svg">
<path d="M3.22412 2.74768H23.2757V22.2524H3.22412V2.74768Z" fill="#0C0824"/>
<path d="M3.22422 2.74766H23.2758V22.2523H3.22422V2.74766ZM2.3125 23.1641H24.1875V1.83594H2.3125V23.1641ZM17.0602 10.5859C16.3398 10.5859 16.0937 10.9508 16.0937 11.2516C16.0937 11.5797 16.2578 11.8078 17.2242 12.3086C18.6555 13.0016 19.0992 13.6664 19.0992 14.6422C19.0992 16.1008 17.9875 16.8844 16.4836 16.8844C15.8382 16.9083 15.1967 16.7742 14.6148 16.4937C14.5508 16.4664 14.5422 16.4211 14.5422 16.3477V15.0062C14.5422 14.9148 14.5875 14.8875 14.6516 14.9336C15.198 15.285 15.834 15.4716 16.4836 15.4711C17.2039 15.4711 17.5047 15.1703 17.5047 14.7602C17.5047 14.432 17.2953 14.1406 16.3742 13.6664C15.0797 13.0469 14.5422 12.4164 14.5422 11.3695C14.5422 10.1938 15.4625 9.21875 17.0578 9.21875C17.6131 9.1949 18.1676 9.28175 18.6891 9.47422C18.7191 9.49371 18.7434 9.52085 18.7595 9.55284C18.7755 9.58483 18.7828 9.62052 18.7805 9.65625V10.9063C18.7805 10.9789 18.7352 11.025 18.6437 10.9977C18.1618 10.7202 17.6138 10.5785 17.0578 10.5875L17.0602 10.5859ZM9.22109 11.6703C9.43047 11.6883 9.59453 11.6883 9.95938 11.6883C11.0258 11.6883 12.0281 11.3148 12.0281 9.86562C12.0281 8.70781 11.3078 8.125 10.0961 8.125C9.73125 8.125 9.38516 8.14297 9.22109 8.15234V11.6703ZM7.59844 6.82656C7.59844 6.7625 7.72578 6.71719 7.79922 6.71719C8.58266 6.68517 9.36669 6.67007 10.1508 6.67188C12.6758 6.67188 13.6602 8.05703 13.6602 9.82578C13.6602 12.1406 11.9828 13.1344 9.92344 13.1344C9.57734 13.1344 9.45859 13.1164 9.2125 13.1164V16.6164C9.2125 16.6891 9.18516 16.7258 9.10313 16.7258H7.70859C7.63594 16.7258 7.59922 16.6984 7.59922 16.6164V6.83047L7.59844 6.82656Z" fill="#31C5F0"/>
</svg>
