<svg width="29" height="25" viewBox="0 0 29 25" fill="none" xmlns="http://www.w3.org/2000/svg">
<g clip-path="url(#clip0_166_27)">
<path d="M23.7541 8.09472C23.4554 7.99222 23.1541 7.89727 22.8506 7.80996C22.9016 7.60162 22.9485 7.39581 22.9902 7.19362C23.6741 3.87334 23.227 1.19845 21.6997 0.317744C20.2353 -0.526554 17.8405 0.353819 15.4218 2.45875C15.1835 2.66657 14.9504 2.88039 14.7228 3.09998C14.5705 2.95396 14.4155 2.81077 14.2578 2.67049C11.7229 0.419827 9.18215 -0.528747 7.65649 0.354476C6.19344 1.20141 5.76022 3.71599 6.37601 6.8627C6.43728 7.17435 6.50645 7.48439 6.58347 7.79252C6.22382 7.89472 5.87678 8.00349 5.54465 8.11928C2.57272 9.15546 0.674805 10.7793 0.674805 12.4636C0.674805 14.2032 2.7123 15.948 5.8077 17.006C6.05865 17.0914 6.31169 17.1706 6.56658 17.2434C6.4838 17.5753 6.4103 17.9094 6.34619 18.2454C5.75912 21.3375 6.21757 23.7926 7.67667 24.6342C9.18369 25.5033 11.7131 24.6101 14.1759 22.4571C14.3756 22.2821 14.5709 22.1021 14.7616 21.9173C15.0081 22.1551 15.2611 22.3859 15.5204 22.6096C17.9062 24.6625 20.2623 25.4914 21.72 24.6476C23.2256 23.776 23.7149 21.1385 23.0796 17.9296C23.0296 17.6782 22.9735 17.428 22.9113 17.1794C23.0889 17.1267 23.2633 17.0726 23.4332 17.0162C26.6512 15.9501 28.745 14.2264 28.745 12.4636C28.745 10.7731 26.7858 9.13836 23.7541 8.09472V8.09472ZM23.0562 15.8781C22.9027 15.9288 22.7452 15.9778 22.5847 16.0255C22.2294 14.9009 21.75 13.705 21.1633 12.4694C21.7232 11.2632 22.1841 10.0827 22.5294 8.96533C22.8166 9.04844 23.0952 9.13605 23.3638 9.22849C25.9614 10.1228 27.5459 11.4448 27.5459 12.4636C27.5459 13.5487 25.8347 14.9573 23.0562 15.8781V15.8781ZM21.9033 18.1625C22.1842 19.5813 22.2243 20.8642 22.0382 21.8672C21.8711 22.7684 21.5349 23.3692 21.1191 23.6098C20.2346 24.1219 18.3428 23.4563 16.3025 21.7006C16.0614 21.4927 15.826 21.278 15.5967 21.057C16.3877 20.192 17.1782 19.1864 17.9497 18.0695C19.3067 17.9491 20.5887 17.7522 21.7513 17.4834C21.8073 17.7085 21.858 17.935 21.9033 18.1625V18.1625ZM10.2445 23.5214C9.38029 23.8265 8.69191 23.8353 8.27579 23.5954C7.39037 23.0847 7.02228 21.1134 7.52437 18.4691C7.58405 18.1566 7.65239 17.8458 7.7293 17.5372C8.87908 17.7915 10.1518 17.9744 11.512 18.0847C12.2887 19.1776 13.102 20.1821 13.9216 21.0617C13.7474 21.2303 13.5691 21.3945 13.3869 21.5543C12.2977 22.5062 11.2064 23.1817 10.2445 23.5214V23.5214ZM6.19564 15.8714C4.82689 15.4035 3.69652 14.7955 2.92173 14.132C2.22546 13.5358 1.87404 12.9438 1.87404 12.4636C1.87404 11.4414 3.39783 10.1377 5.93939 9.25162C6.24783 9.14417 6.57064 9.04274 6.90562 8.94757C7.25693 10.0901 7.71768 11.2847 8.27371 12.4927C7.71044 13.7186 7.24312 14.9323 6.8884 16.0884C6.65574 16.0217 6.42475 15.9494 6.19564 15.8714V15.8714ZM7.55287 6.63233C7.02535 3.93638 7.37568 1.90272 8.25737 1.39231C9.19641 0.848665 11.2729 1.62377 13.4616 3.5672C13.6044 3.69421 13.7448 3.8238 13.8828 3.9559C13.0672 4.83167 12.2614 5.82871 11.4916 6.91511C10.1714 7.03748 8.9077 7.23397 7.74586 7.49724C7.67427 7.21064 7.60993 6.92228 7.55287 6.63244V6.63233ZM19.6611 9.62224C19.3867 9.14822 19.1021 8.68016 18.8075 8.2184C19.7031 8.33167 20.5612 8.482 21.367 8.66577C21.1251 9.44121 20.8236 10.2518 20.4687 11.083C20.2092 10.5907 19.94 10.1037 19.6611 9.62224V9.62224ZM14.7234 4.81292C15.2764 5.41215 15.8304 6.08112 16.3752 6.807C15.27 6.7548 14.1629 6.75458 13.0576 6.80634C13.603 6.08715 14.1616 5.41906 14.7234 4.81292ZM9.75397 9.63046C9.47857 10.1081 9.21435 10.5921 8.96154 11.082C8.61241 10.2538 8.31362 9.43945 8.06965 8.65305C8.87053 8.47388 9.72459 8.32739 10.6145 8.21621C10.3166 8.68079 10.0297 9.1523 9.75397 9.63035V9.63046ZM10.64 16.7963C9.72064 16.6936 8.85375 16.5547 8.05309 16.3804C8.3009 15.5799 8.60627 14.7482 8.96296 13.9023C9.21678 14.3926 9.4821 14.8769 9.75869 15.3547C10.0431 15.8459 10.3376 16.3271 10.64 16.7963ZM14.7565 20.1987C14.1881 19.5855 13.6212 18.9071 13.0676 18.1775C13.6051 18.1986 14.153 18.2093 14.7099 18.2093C15.282 18.2093 15.8476 18.1965 16.4043 18.1717C15.8577 18.9145 15.3058 19.5938 14.7565 20.1987ZM20.48 13.8591C20.8552 14.7143 21.1714 15.5416 21.4225 16.3284C20.6087 16.5141 19.73 16.6637 18.8041 16.7748C19.1008 16.3044 19.3881 15.8282 19.6658 15.3465C19.9482 14.8568 20.2196 14.3609 20.48 13.8591V13.8591ZM18.6271 14.7473C18.2019 15.486 17.7528 16.2106 17.2805 16.92C16.425 16.9806 15.5676 17.0107 14.7099 17.0103C13.8363 17.0103 12.9866 16.9831 12.1684 16.93C11.6838 16.2222 11.2261 15.4963 10.7964 14.7539H10.7965C10.3688 14.0155 9.96928 13.261 9.59882 12.4922C9.96833 11.7232 10.3666 10.9684 10.7929 10.2294L10.7928 10.2295C11.2189 9.49025 11.6729 8.76747 12.1539 8.0627C12.9886 7.99954 13.8447 7.96665 14.7098 7.96665H14.7099C15.579 7.96665 16.4361 7.99987 17.2706 8.06347C17.7467 8.76718 18.1979 9.48747 18.6232 10.223C19.0508 10.9604 19.4544 11.7115 19.8332 12.4752C19.4583 13.2467 19.056 14.0045 18.6271 14.7473V14.7473ZM21.1008 1.35656C22.0407 1.89866 22.4063 4.08474 21.8157 6.95152C21.778 7.13441 21.7357 7.3207 21.6896 7.50963C20.5249 7.24077 19.2603 7.04088 17.9363 6.91665C17.165 5.81829 16.3658 4.81972 15.5635 3.95524C15.7738 3.75256 15.989 3.55513 16.2091 3.36314C18.2815 1.55974 20.2183 0.847678 21.1008 1.35656V1.35656ZM14.7099 9.957C16.0942 9.957 17.2165 11.0793 17.2165 12.4636C17.2165 13.8479 16.0942 14.9702 14.7099 14.9702C13.3256 14.9702 12.2033 13.8479 12.2033 12.4636C12.2033 11.0793 13.3256 9.957 14.7099 9.957V9.957Z" fill="#00D8FF"/>
</g>
<defs>
<clipPath id="clip0_166_27">
<rect width="28.08" height="25" fill="white" transform="translate(0.669922)"/>
</clipPath>
</defs>
</svg>
